<?xml version="1.0" encoding="UTF-8" standalone="no"?>
<!DOCTYPE svg PUBLIC "-//W3C//DTD SVG 1.1//EN" "http://www.w3.org/Graphics/SVG/1.1/DTD/svg11.dtd">
<svg width="100%" height="100%" viewBox="0 0 1482 844" version="1.1" xmlns="http://www.w3.org/2000/svg" xmlns:xlink="http://www.w3.org/1999/xlink" xml:space="preserve" xmlns:serif="http://www.serif.com/" style="fill-rule:evenodd;clip-rule:evenodd;stroke-linejoin:round;stroke-miterlimit:2;">
    <g id="Capa-1" serif:id="Capa 1">
        <g transform="matrix(1,0,0,1,482.796,217.037)">
            <path d="M0,279.483C-0.786,279.6 -1.552,279.813 -2.318,279.815C-26.14,279.855 -49.961,279.889 -73.907,279.807C-75.014,278.205 -76.059,276.81 -76.979,275.339C-86.227,260.564 -95.494,245.802 -104.677,230.987C-117.146,210.87 -129.545,190.71 -141.975,170.567C-146.929,162.539 -151.841,154.484 -156.842,146.485C-178.713,111.507 -200.602,76.541 -222.499,41.58C-229.543,30.333 -236.636,19.116 -243.7,7.881C-244.465,6.664 -245.226,5.44 -245.917,4.179C-246.573,2.983 -246.623,1.749 -245.859,0.572C-245.706,0.468 -245.58,0.367 -245.439,0.292C-245.303,0.218 -245.155,0.13 -245.006,0.119C-244.21,0.059 -243.413,-0.02 -242.616,-0.02C-219.9,-0.009 -197.184,0.008 -174.469,0.039C-174.002,0.039 -173.537,0.205 -172.962,0.315C-165.103,13.607 -156.714,26.619 -148.564,39.781C-140.482,52.834 -132.354,65.858 -124.24,78.892C-116.042,92.061 -107.846,105.232 -99.632,118.392C-91.525,131.379 -83.495,144.416 -75.446,157.149C-73.804,157.043 -73.8,156.168 -73.795,155.402C-73.772,151.243 -73.789,147.085 -73.791,142.926C-73.816,97.02 -73.843,51.113 -73.859,5.207C-73.859,3.782 -73.739,2.357 -73.682,1.082C-71.971,-0.406 -70.131,0.097 -68.435,0.09C-57.077,0.045 -45.718,0.066 -34.36,0.066C-24.602,0.066 -14.844,0.062 -5.085,0.071C-3.504,0.073 -1.923,0.137 -0.168,0.176C0.132,1.296 0.477,2.165 0.575,3.061C0.697,4.167 0.618,5.296 0.618,6.416C0.62,95.51 0.624,184.605 0.607,273.699C0.606,275.575 0.961,277.523 0,279.483" style="fill:rgb(48,81,135);fill-rule:nonzero;"/>
        </g>
        <g transform="matrix(1,0,0,1,1080.19,496.734)">
            <path d="M0,-278.889C22.419,-278.888 44.752,-278.895 66.692,-278.884C68.147,-276.975 67.44,-275.613 67.028,-274.27C64.916,-267.397 62.793,-260.527 60.658,-253.66C53.214,-229.706 45.723,-205.767 38.33,-181.797C33.291,-165.458 27.789,-149.281 22.042,-133.178C10.332,-100.368 -0.177,-67.158 -10.732,-33.963C-13.879,-24.067 -17.082,-14.188 -20.262,-4.301C-20.506,-3.541 -20.744,-2.777 -21.032,-2.033C-21.405,-1.07 -22.091,-0.44 -23.157,-0.36C-24.112,-0.287 -25.071,-0.238 -26.028,-0.237C-50.489,-0.222 -74.95,-0.212 -99.411,-0.215C-100.81,-0.215 -102.273,0.006 -103.799,-1.021C-103.585,-1.943 -103.472,-2.858 -103.16,-3.701C-99.234,-14.341 -95.183,-24.936 -91.349,-35.61C-78.87,-70.343 -66.524,-105.125 -54.02,-139.849C-44.438,-166.453 -34.853,-193.057 -24.964,-219.548C-17.924,-238.41 -10.088,-256.964 -1.85,-275.34C-1.335,-276.49 -0.687,-277.579 0,-278.889" style="fill:rgb(48,81,135);fill-rule:nonzero;"/>
        </g>
        <g transform="matrix(1,0,0,1,886.948,218.117)">
            <path d="M0,278.451C-1.892,274.32 -3.753,270.443 -5.461,266.499C-19.751,233.491 -32.449,199.865 -44.449,165.969C-56.34,132.38 -68.168,98.769 -80.197,65.231C-87.317,45.381 -94.78,25.654 -102.07,5.865C-102.667,4.247 -103.518,2.677 -103.512,0.55C-102.744,0.326 -102.049,0.01 -101.329,-0.059C-100.22,-0.166 -99.094,-0.112 -97.975,-0.112C-74.313,-0.107 -50.65,-0.102 -26.988,-0.087C-25.247,-0.086 -23.505,-0.01 -21.674,0.033C-21.154,1.243 -20.634,2.225 -20.3,3.267C-13.566,24.264 -6.975,45.307 -0.104,66.259C7.016,87.969 14.496,109.56 21.644,131.261C28.44,151.899 35.082,172.589 41.665,193.297C49.992,219.488 58.19,245.72 66.444,271.933C66.876,273.305 67.363,274.662 67.723,276.052C68.107,277.538 67.366,278.438 65.731,278.558C64.936,278.617 64.134,278.601 63.334,278.601C43.35,278.602 23.364,278.602 3.38,278.595C2.424,278.594 1.469,278.515 0,278.451" style="fill:rgb(48,81,135);fill-rule:nonzero;"/>
        </g>
        <g transform="matrix(1,0,0,1,676.158,361.027)">
            <path d="M0,-61.137C-27.022,-71.605 -51.547,-67.756 -72.982,-47.451C-92.473,-26.092 -95.865,-1.902 -85.598,24.878C-85.993,25.41 -86.389,26.105 -86.934,26.651C-90.825,30.547 -92.883,35.321 -93.554,40.7C-93.761,42.356 -94.271,43.769 -95.229,45.098C-102.925,55.765 -111.275,65.859 -121.375,74.363C-124.055,76.621 -126.924,78.717 -129.939,80.492C-132.102,81.763 -134.595,82.604 -137.045,83.217C-139.658,83.872 -142.145,83.252 -143.964,81.01C-145.371,79.276 -146.896,77.617 -148.127,75.764C-156.062,63.82 -161.91,50.896 -165.982,37.162C-167.691,31.399 -167.64,31.303 -162.277,28.183C-156.555,24.853 -151.359,20.938 -147.497,15.446C-145.637,12.802 -144.267,9.938 -143.343,6.852C-141.545,0.854 -142.479,-4.902 -145.187,-10.374C-149.224,-18.533 -155.697,-24.354 -163.51,-28.801C-163.787,-28.959 -164.082,-29.089 -164.378,-29.207C-168.794,-30.974 -168.943,-31.87 -167.847,-36.622C-164.842,-49.636 -159.987,-61.948 -153.574,-73.656C-152.884,-74.914 -152.176,-76.17 -151.606,-77.484C-150.716,-79.533 -149.179,-80.387 -147.025,-80.153C-145.282,-79.964 -143.512,-79.823 -141.819,-79.399C-135.505,-77.818 -129.161,-77.579 -122.799,-78.906C-114.588,-80.617 -107.793,-84.446 -104.032,-92.346C-101.35,-97.98 -100.542,-103.976 -101.433,-110.133C-102.003,-114.075 -102.883,-117.973 -103.62,-121.891C-103.738,-122.519 -103.854,-123.147 -103.943,-123.78C-104.167,-125.373 -103.624,-126.599 -102.178,-127.378C-97.955,-129.652 -93.818,-132.107 -89.491,-134.164C-79.932,-138.71 -69.976,-142.174 -59.612,-144.416C-58.988,-144.551 -58.375,-144.759 -57.745,-144.845C-56.529,-145.009 -55.507,-144.594 -54.878,-143.527C-54.313,-142.567 -53.89,-141.525 -53.362,-140.541C-49.433,-133.215 -44.177,-127.098 -36.979,-122.799C-33.514,-120.729 -29.823,-119.292 -25.738,-118.938C-18.246,-118.288 -11.96,-121.033 -6.341,-125.688C-1.964,-129.312 1.236,-133.891 4.074,-138.75C4.875,-140.122 5.666,-141.501 6.361,-142.704C8.368,-143.444 10.051,-143.065 11.774,-142.584C26.378,-138.511 39.934,-132.183 52.574,-123.83C54.768,-122.38 56.402,-120.429 57.952,-118.425C58.669,-117.496 58.981,-116.094 59.078,-114.875C59.34,-111.557 58.06,-108.624 56.424,-105.817C53.422,-100.665 49.585,-96.165 45.476,-91.894C38.134,-84.263 29.963,-77.592 21.424,-71.355C19.86,-70.213 18.229,-69.175 16.25,-68.991C10.59,-68.466 5.859,-66.028 1.801,-62.138C1.459,-61.811 1.038,-61.563 0.638,-61.303C0.513,-61.221 0.335,-61.22 0,-61.137" style="fill:rgb(48,81,135);fill-rule:nonzero;"/>
        </g>
        <g transform="matrix(1,0,0,1,708.7,439.92)">
            <path d="M0,-105.854C0.847,-106.784 1.464,-107.506 2.128,-108.184C5.823,-111.95 8.251,-116.333 8.816,-121.658C9.021,-123.592 9.671,-125.348 10.844,-126.96C18.672,-137.721 27.051,-148.002 37.327,-156.548C40.384,-159.089 43.78,-161.246 47.148,-163.377C49.171,-164.657 51.46,-165.37 53.941,-165.498C56.798,-165.644 58.899,-164.633 60.347,-162.175C62.213,-159.008 64.186,-155.902 65.979,-152.694C72.488,-141.042 77.321,-128.73 80.337,-115.717C80.409,-115.406 80.506,-115.1 80.572,-114.788C81.476,-110.561 81.265,-110.178 77.196,-108.193C69.832,-104.599 63.919,-99.308 59.487,-92.462C53.09,-82.581 53.627,-71.971 60.742,-62.513C63.864,-58.361 67.761,-55.091 72.132,-52.358C74.424,-50.925 76.769,-49.576 79.344,-48.037C79.217,-46.43 79.349,-44.798 78.93,-43.323C75.285,-30.499 70.3,-18.249 62.982,-7.032C62.898,-6.902 62.752,-6.812 62.417,-6.504C59.632,-6.177 56.635,-6.339 53.692,-7.141C45.527,-9.366 37.522,-8.731 29.72,-5.657C22.219,-2.701 17.419,2.784 15.396,10.595C14.349,14.639 13.837,18.755 14.436,22.948C14.798,25.479 15.136,28.015 15.423,30.556C15.566,31.82 15.677,33.104 15.623,34.371C15.325,41.28 14.959,41.86 8.838,45.195C-0.462,50.264 -10.198,54.266 -20.41,57.103C-22.113,57.576 -23.781,58.137 -25.978,57.461C-26.55,56.54 -27.323,55.362 -28.03,54.146C-30.691,49.571 -33.553,45.146 -37.521,41.562C-38.588,40.599 -39.647,39.606 -40.82,38.785C-50.265,32.164 -59.771,31.478 -69.973,37.703C-76.964,41.97 -82.122,47.995 -85.924,55.21C-86.146,55.633 -86.293,56.096 -86.507,56.523C-88.016,59.538 -88.472,59.79 -91.723,59.127C-98.946,57.652 -105.96,55.444 -112.822,52.789C-120.14,49.957 -127.195,46.543 -133.893,42.444C-136.338,40.948 -138.654,39.233 -140.983,37.556C-142.665,36.345 -143.292,34.617 -143.325,32.557C-143.37,29.733 -142.413,27.224 -141.166,24.788C-139.184,20.918 -136.545,17.494 -133.703,14.241C-125.345,4.677 -115.685,-3.431 -105.413,-10.847C-103.82,-11.997 -102.135,-12.655 -100.154,-12.922C-94.771,-13.646 -89.997,-15.793 -86.289,-19.862C-84.748,-21.554 -83.183,-21.741 -81.151,-20.957C-76.208,-19.047 -71.067,-18.032 -65.792,-17.41C-44.074,-14.849 -19.996,-25.775 -7.409,-43.895C0.901,-55.859 5.045,-68.997 4.682,-83.54C4.521,-89.975 3.241,-96.227 1.188,-102.322C0.833,-103.377 0.479,-104.432 0,-105.854" style="fill:rgb(48,81,135);fill-rule:nonzero;"/>
        </g>
        <g transform="matrix(1,0,0,1,975.337,481.283)">
            <path d="M0,-263.135C3.936,-263.66 77.58,-263.761 82.804,-263.264C83.477,-261.612 82.386,-260.232 81.871,-258.836C77.285,-246.389 72.501,-234.013 68.013,-221.531C56.762,-190.241 45.577,-158.927 34.474,-127.585C23.049,-95.341 11.705,-63.068 -0.951,-31.278C-4.795,-21.624 -8.841,-12.051 -12.857,-2.467C-13.317,-1.369 -13.386,0.112 -15.099,0.626C-15.496,-0.388 -15.951,-1.372 -16.274,-2.397C-27.272,-37.31 -38.257,-72.228 -49.244,-107.144C-49.483,-107.906 -49.711,-108.674 -49.974,-109.428C-50.465,-110.843 -50.322,-112.135 -49.809,-113.593C-43.487,-131.532 -37.117,-149.458 -31.035,-167.48C-25.925,-182.626 -21.17,-197.892 -16.269,-213.108C-11.27,-228.63 -6.289,-244.157 -1.286,-259.677C-0.898,-260.881 -0.406,-262.05 0,-263.135" style="fill:rgb(7,26,58);fill-rule:nonzero;"/>
        </g>
        <g transform="matrix(1,0,0,1,1153.65,496.755)">
            <path d="M0,-264.914C1.174,-262.479 1.927,-261.118 2.505,-259.685C8.73,-244.27 15.106,-228.912 21.096,-213.405C33.829,-180.442 45.288,-147.016 57.03,-113.694C69.623,-77.96 82.428,-42.303 95.841,-6.867C96.615,-4.819 97.573,-2.792 97.841,-0.505C97.162,-0.283 96.737,-0.02 96.312,-0.02C69.291,0 42.271,-0.002 15.41,-0.002C13.869,-1.504 13.634,-3.296 13.107,-4.937C7.006,-23.967 0.945,-43.01 -5.167,-62.038C-14.361,-90.654 -23.776,-119.197 -34.13,-147.42C-35.122,-150.127 -35.168,-152.524 -34.306,-155.278C-23.414,-190.06 -12.623,-224.874 -1.799,-259.677C-1.375,-261.039 -0.874,-262.376 0,-264.914" style="fill:rgb(7,26,58);fill-rule:nonzero;"/>
        </g>
        <g transform="matrix(1,0,0,1,236.856,497.371)">
            <path d="M0,-259.465C0.545,-258.828 1.089,-258.332 1.466,-257.731C9.453,-244.995 17.414,-232.244 25.393,-219.504C40.756,-194.97 56.101,-170.426 71.53,-145.934C73.302,-143.121 74.124,-140.314 74.117,-136.953C74.028,-93.286 74.059,-49.618 74.059,-5.951L74.059,-0.972C72.979,-0.704 72.11,-0.399 71.219,-0.293C70.272,-0.181 69.302,-0.253 68.342,-0.253C47.226,-0.252 26.11,-0.245 4.993,-0.267C3.276,-0.268 1.504,0 -0.177,-0.696C-0.356,-1.27 -0.615,-1.711 -0.615,-2.153C-0.632,-87.567 -0.631,-172.981 -0.612,-258.395C-0.612,-258.643 -0.338,-258.891 0,-259.465" style="fill:rgb(7,26,58);fill-rule:nonzero;"/>
        </g>
        <g transform="matrix(0.0183697,-0.999831,-0.999831,-0.0183697,695.636,295.521)">
            <path d="M-19.703,-18.961C-30.361,-18.915 -39.206,-10.034 -39.193,0.611C-39.181,11.323 -30.43,20.109 -19.703,20.18C-8.826,20.251 0.19,11.187 0.024,0.349C-0.142,-10.428 -8.908,-19.008 -19.703,-18.961" style="fill:rgb(7,26,58);fill-rule:nonzero;"/>
        </g>
        <g transform="matrix(-0.00188737,0.999998,0.999998,0.00188737,606.079,384.476)">
            <path d="M19.383,-19.867C8.695,-19.831 -0.111,-10.989 -0.1,-0.305C-0.09,10.371 8.724,19.258 19.383,19.341C30.074,19.423 39.324,10.109 39.153,-0.562C38.979,-11.29 30.158,-19.904 19.383,-19.867" style="fill:rgb(7,26,58);fill-rule:nonzero;"/>
        </g>
        <g transform="matrix(1,0,0,1,898.216,565.768)">
            <path d="M0,44.738C5.873,44.765 9.447,44.011 13.743,41.594C28.13,33.5 28.626,15.405 17.245,6.21C8.451,-0.896 -5.278,-1.427 -14.535,5.092C-27.199,14.012 -27.197,31.425 -14.493,40.337C-10.045,43.458 -5.052,44.912 0,44.738M0.594,50.543C-7.18,50.652 -14.449,48.748 -20.951,44.092C-35.076,33.983 -35.437,12.409 -21.654,1.874C-13.876,-4.073 -4.963,-5.914 4.581,-5.049C9.865,-4.571 14.885,-3.117 19.563,-0.406C36.98,9.689 37.65,34.085 20.761,45.065C14.653,49.036 7.912,50.607 0.594,50.543" style="fill:rgb(7,26,58);fill-rule:nonzero;"/>
        </g>
        <g transform="matrix(1,0,0,1,373.103,565.12)">
            <path d="M0,45.378C6.474,45.592 12.232,43.601 17.185,39.385C27.053,30.986 27.021,15.786 17.227,7.343C9.132,0.365 -3.951,-1.302 -14.111,5.058C-28.37,13.982 -27.452,32.109 -15.737,40.536C-11.023,43.927 -5.819,45.55 0,45.378M-0.089,51.193C-7.874,51.315 -15.333,49.42 -21.869,44.499C-34.391,35.072 -36.078,17.091 -25.527,5.501C-22.338,1.998 -18.443,-0.578 -14.033,-2.106C-2.97,-5.937 7.937,-5.696 18.419,0.006C36.374,9.774 37.202,34.627 20.231,45.661C14.123,49.634 7.393,51.236 -0.089,51.193" style="fill:rgb(7,26,58);fill-rule:nonzero;"/>
        </g>
        <g transform="matrix(1,0,0,1,1023.92,565.654)">
            <path d="M0,44.839C4.205,45.086 8.485,44.016 12.542,41.914C26.919,34.465 28.552,15.444 15.641,5.72C6.293,-1.322 -7.855,-1.033 -16.909,6.384C-27.481,15.044 -27.45,30.767 -16.814,39.339C-12.028,43.195 -6.526,45.014 0,44.839M-0.856,50.665C-7.734,50.744 -14.727,48.99 -21.057,44.716C-36.857,34.047 -36.445,9.956 -19.63,0.041C-11.894,-4.521 -3.598,-5.905 5.269,-4.715C10.264,-4.044 14.883,-2.554 19.219,0.017C36.277,10.129 36.349,34.564 20.265,44.961C14.231,48.861 8.094,50.657 -0.856,50.665" style="fill:rgb(7,26,58);fill-rule:nonzero;"/>
        </g>
        <g transform="matrix(1,0,0,1,245.899,592.739)">
            <path d="M0,-8.077C5.146,-7.061 14.554,-7.283 18.474,-8.448C19.385,-8.719 20.288,-9.077 21.124,-9.526C23.901,-11.02 25.338,-13.312 25.174,-16.539C25.012,-19.704 23.571,-22.109 20.663,-23.298C18.776,-24.068 16.692,-24.593 14.663,-24.726C10.689,-24.989 6.692,-24.942 2.705,-24.925C1.829,-24.922 0.956,-24.507 0,-24.261L0,-8.077ZM-6.962,-30.339C-6.303,-30.475 -5.552,-30.771 -4.804,-30.764C2.382,-30.696 9.569,-30.627 16.752,-30.451C20.32,-30.364 23.634,-29.269 26.789,-27.571C35.56,-22.848 34.556,-10.255 28.085,-6.189C26.346,-5.097 24.476,-4.184 22.59,-3.362C21.309,-2.804 19.896,-2.546 18.195,-2.053C18.718,-1.052 19.048,-0.19 19.566,0.537C23.548,6.132 27.578,11.693 31.563,17.285C32.548,18.668 33.789,19.939 34.278,21.998C31.477,22.508 28.993,22.353 26.334,22.152C25.569,21.186 24.74,20.234 24.015,19.208C19.771,13.213 15.462,7.26 11.371,1.161C9.941,-0.971 8.307,-1.886 5.804,-1.629C4.086,-1.453 2.343,-1.522 0.375,-1.476C0.166,-0.154 -0.135,0.9 -0.146,1.957C-0.199,6.908 -0.16,11.86 -0.18,16.812C-0.186,18.388 -0.272,19.964 -0.326,21.687C-2.608,22.694 -4.752,22.361 -7.127,21.949C-7.269,20.815 -7.497,19.737 -7.523,18.655C-8.031,-2.365 -7.768,-26.069 -6.962,-30.339" style="fill:rgb(7,26,58);fill-rule:nonzero;"/>
        </g>
        <g transform="matrix(1,0,0,1,600.394,590.88)">
            <path d="M0,-4.775C3.621,-0.986 7.26,1.868 10.625,5.001C13.898,8.049 17.359,10.898 20.583,13.994C23.865,17.144 27.719,19.725 30.627,23.523C28.094,24.078 23.152,24.537 21.94,24.04C20.803,23.574 19.732,22.805 18.813,21.97C11.722,15.523 4.681,9.021 -2.392,2.553C-4.268,0.838 -6.2,-0.816 -7.966,-2.375C-9.6,-1.972 -9.339,-0.867 -9.344,0.02C-9.377,6.25 -9.356,12.481 -9.379,18.711C-9.385,20.285 -9.49,21.857 -9.545,23.345C-12.677,24.303 -12.677,24.303 -16.207,23.637C-16.34,23.238 -16.616,22.796 -16.616,22.356C-16.639,5.902 -16.639,-10.551 -16.619,-27.004C-16.619,-27.451 -16.365,-27.897 -16.202,-28.432C-14.189,-29.312 -12.174,-28.854 -9.954,-28.783C-9.733,-27.67 -9.414,-26.779 -9.404,-25.885C-9.351,-20.934 -9.389,-15.981 -9.359,-11.029C-9.35,-9.631 -9.219,-8.235 -9.154,-7.021C-7.751,-6.185 -7.068,-7.061 -6.368,-7.629C1.332,-13.857 9.09,-20.016 16.648,-26.413C18.906,-28.324 21.169,-29.236 24.037,-28.969C25.452,-28.837 26.879,-28.844 28.479,-28.782C28.497,-26.844 26.999,-26.26 25.992,-25.455C20.006,-20.663 13.955,-15.953 7.942,-11.195C5.444,-9.218 2.986,-7.192 0,-4.775" style="fill:rgb(7,26,58);fill-rule:nonzero;"/>
        </g>
        <g transform="matrix(1,0,0,1,1251.58,610.209)">
            <path d="M0,-43.377C-2.038,-41.878 -3.688,-40.664 -5.526,-39.313C-6.47,-39.993 -7.31,-40.689 -8.23,-41.248C-14.067,-44.789 -20.043,-44.689 -26.058,-41.767C-28.348,-40.653 -29.741,-38.781 -30.206,-36.228C-30.762,-33.182 -29.763,-30.445 -26.964,-28.86C-24.76,-27.612 -22.343,-26.69 -19.939,-25.857C-16.771,-24.761 -13.47,-24.041 -10.33,-22.878C-8.105,-22.054 -5.931,-20.951 -3.945,-19.649C2.545,-15.395 2.219,-5.603 -1.433,-1.286C-3.664,1.352 -6.321,3.364 -9.582,4.403C-16.953,6.751 -24.375,6.81 -31.74,4.338C-35.121,3.204 -36.526,2.088 -39.118,-1.076C-37.707,-2.773 -35.76,-3.795 -33.718,-5.128C-32.841,-4.468 -31.963,-3.849 -31.13,-3.173C-25.443,1.445 -16.217,1.156 -11.198,-1.917C-8.783,-3.397 -6.932,-5.314 -6.683,-8.312C-6.453,-11.067 -7.289,-13.447 -9.745,-14.885C-11.521,-15.925 -13.43,-16.805 -15.377,-17.47C-18.55,-18.554 -21.844,-19.285 -25.008,-20.39C-27.405,-21.228 -29.744,-22.293 -31.999,-23.468C-39.492,-27.37 -40.566,-38.939 -33.323,-44.604C-31.166,-46.291 -28.823,-47.58 -26.158,-48.365C-19.984,-50.187 -13.853,-50.017 -7.711,-48.303C-4.877,-47.512 -2.472,-46.024 0,-43.377" style="fill:rgb(7,26,58);fill-rule:nonzero;"/>
        </g>
        <g transform="matrix(1,0,0,1,519.104,608.629)">
            <path d="M0,-40.015C-1.8,-38.152 -3.73,-37.128 -5.816,-36.13C-6.653,-36.774 -7.402,-37.345 -8.146,-37.923C-19.834,-47.003 -40.302,-41.867 -44.603,-24.869C-47.165,-14.745 -42.086,-5.255 -33.596,-1.068C-23.767,3.782 -14.149,3.268 -5.284,-3.718C-4.907,-4.015 -4.531,-4.311 -4.146,-4.595C-4.021,-4.687 -3.865,-4.738 -3.391,-4.97C-1.652,-4.358 -0.018,-3.259 1.45,-1.374C0.836,-0.609 0.392,0.291 -0.33,0.783C-2.695,2.392 -4.986,4.338 -7.619,5.285C-17.647,8.893 -27.679,8.771 -37.446,4.172C-40.648,2.664 -43.494,0.585 -45.901,-2.036C-57.154,-14.285 -54.77,-33.461 -40.812,-42.534C-33.406,-47.348 -25.272,-48.908 -16.533,-47.72C-11.547,-47.043 -6.801,-45.829 -2.759,-42.676C-1.801,-41.929 -0.995,-40.985 0,-40.015" style="fill:rgb(7,26,58);fill-rule:nonzero;"/>
        </g>
        <g transform="matrix(1,0,0,1,761.391,609.586)">
            <path d="M0,-42.196C-0.803,-44.008 -0.834,-45.525 -0.022,-47.309C1.134,-47.422 2.37,-47.626 3.609,-47.649C26.311,-48.092 43.108,-47.878 47.389,-47.059C47.472,-46.414 47.636,-45.666 47.646,-44.916C47.656,-44.132 47.519,-43.346 47.422,-42.309C46.31,-42.143 45.25,-41.863 44.186,-41.848C40.196,-41.793 36.205,-41.841 32.214,-41.811C30.803,-41.801 29.392,-41.679 27.944,-41.606C26.841,-39.86 27.222,-38.063 27.216,-36.369C27.179,-24.399 27.202,-12.428 27.188,-0.458C27.186,1.276 27.089,3.008 27.033,4.832C24.681,5.896 22.562,5.386 20.41,5.276C19.622,3.281 19.891,1.51 19.887,-0.209C19.86,-12.178 19.889,-24.149 19.855,-36.12C19.851,-37.832 20.185,-39.615 19.27,-41.432C12.842,-42.508 6.281,-41.121 0,-42.196" style="fill:rgb(7,26,58);fill-rule:nonzero;"/>
        </g>
        <g transform="matrix(1,0,0,1,1127.36,614.746)">
            <path d="M0,-52.25C0.57,-47.123 0.212,-42.038 0.273,-36.97C0.335,-31.864 0.287,-26.757 0.287,-21.649L0.287,-6.104C1.605,-5.866 2.649,-5.524 3.695,-5.516C10.238,-5.463 16.783,-5.498 23.327,-5.473C24.887,-5.466 26.446,-5.338 27.87,-5.271C28.825,-3.437 28.676,-1.904 28.135,-0.161C24.443,0.792 20.617,0.198 16.838,0.294C12.851,0.395 8.857,0.35 4.868,0.307C1.077,0.266 -2.73,0.523 -6.168,0.134C-6.597,-0.342 -6.727,-0.447 -6.804,-0.582C-6.88,-0.714 -6.943,-0.876 -6.943,-1.025C-6.999,-16.98 -7.05,-32.937 -7.093,-48.892C-7.095,-49.687 -7.055,-50.487 -6.972,-51.278C-6.94,-51.572 -6.729,-51.847 -6.496,-52.359C-4.49,-53.042 -2.376,-53.021 0,-52.25" style="fill:rgb(7,26,58);fill-rule:nonzero;"/>
        </g>
    </g>
</svg>
